<svg width="25" height="20" viewBox="0 0 25 20" fill="none" xmlns="http://www.w3.org/2000/svg">
<path d="M2.5 2.5V13.75H22.5V2.5H2.5ZM0 2.5C0 1.12109 1.12109 0 2.5 0H22.5C23.8789 0 25 1.12109 25 2.5V13.75C25 15.1289 23.8789 16.25 22.5 16.25H2.5C1.12109 16.25 0 15.1289 0 13.75V2.5ZM5 17.5H20C20.6914 17.5 21.25 18.0586 21.25 18.75C21.25 19.4414 20.6914 20 20 20H5C4.30859 20 3.75 19.4414 3.75 18.75C3.75 18.0586 4.30859 17.5 5 17.5Z" fill="#A0A3BD"/>
<path d="M7.62494 6C8.11331 6 8.54174 6.08214 8.91024 6.24642C9.28317 6.4107 9.56954 6.64565 9.76932 6.95129C9.97355 7.2531 10.0757 7.60458 10.0757 8.00573C10.0757 8.40688 9.97355 8.75836 9.76932 9.06017C9.56954 9.35817 9.28317 9.5893 8.91024 9.75358C8.54174 9.91786 8.11331 10 7.62494 10H6V6H7.62494ZM7.59164 9.31805C8.08001 9.31805 8.45739 9.20344 8.72377 8.97421C8.99015 8.74499 9.12334 8.42216 9.12334 8.00573C9.12334 7.5893 8.99015 7.26456 8.72377 7.03152C8.45739 6.79465 8.08001 6.67622 7.59164 6.67622H6.93234V9.31805H7.59164Z" fill="#A0A3BD"/>
<path d="M15.1572 6L13.4524 10H12.3203L10.6154 6H11.6143L12.893 9.18052L14.165 6H15.1572Z" fill="#A0A3BD"/>
<path d="M17.5493 6C18.0376 6 18.4661 6.08214 18.8346 6.24642C19.2075 6.4107 19.4939 6.64565 19.6937 6.95129C19.8979 7.2531 20 7.60458 20 8.00573C20 8.40688 19.8979 8.75836 19.6937 9.06017C19.4939 9.35817 19.2075 9.5893 18.8346 9.75358C18.4661 9.91786 18.0376 10 17.5493 10H15.9243V6H17.5493ZM17.516 9.31805C18.0043 9.31805 18.3817 9.20344 18.6481 8.97421C18.9145 8.74499 19.0477 8.42216 19.0477 8.00573C19.0477 7.5893 18.9145 7.26456 18.6481 7.03152C18.3817 6.79465 18.0043 6.67622 17.516 6.67622H16.8567V9.31805H17.516Z" fill="#A0A3BD"/>
</svg>
