<svg width="24" height="22" viewBox="0 0 24 22" fill="none" xmlns="http://www.w3.org/2000/svg">
<path d="M18.6 5.32432H19.7M1 9.64865L1.869 12.4422C2.00657 12.885 2.28518 13.2728 2.6638 13.5484C3.04242 13.8239 3.50105 13.9728 3.9722 13.973H5.4M23 9.64865L22.131 12.4422C21.9934 12.885 21.7148 13.2728 21.3362 13.5484C20.9576 13.8239 20.4989 13.9728 20.0278 13.973H18.6M9.25 13.4324C9.25 13.4324 9.25 21 5.4 21M14.75 13.4324C14.75 13.4324 14.75 21 18.6 21M12 13.4324V21M23 1.64865V9.64865H1V1.64865C1 1.47662 1.06954 1.31163 1.19331 1.18998C1.31708 1.06834 1.48496 1 1.66 1H22.34C22.515 1 22.6829 1.06834 22.8067 1.18998C22.9305 1.31163 23 1.47662 23 1.64865V1.64865Z" stroke="#A0A3BD" stroke-width="1.5" stroke-linecap="round" stroke-linejoin="round"/>
</svg>
